<svg xmlns="http://www.w3.org/2000/svg" viewBox="0 0 1600 900"><defs><linearGradient id="bg" x1="0" y1="0" x2="1" y2="1"><stop stop-color="#020914"/><stop offset=".56" stop-color="#20070c"/><stop offset="1" stop-color="#64131e"/></linearGradient><radialGradient id="g"><stop stop-color="#ff6678" stop-opacity=".72"/><stop offset="1" stop-color="#ff6678" stop-opacity="0"/></radialGradient><linearGradient id="foil" x1="0" y1="0" x2="1" y2="1"><stop stop-color="#55d8ff"/><stop offset=".25" stop-color="#fff"/><stop offset=".5" stop-color="#ffcf5a"/><stop offset=".75" stop-color="#ff5aa9"/><stop offset="1" stop-color="#7657ff"/></linearGradient><filter id="ds"><feDropShadow dx="0" dy="26" stdDeviation="26" flood-opacity=".72"/></filter></defs><rect width="1600" height="900" fill="url(#bg)"/><circle cx="1220" cy="245" r="360" fill="url(#g)"/><g opacity=".32" stroke="#ff8290" stroke-width="5"><path d="M850 70l160 175-95 78 188 225"/><path d="M1320 25l-100 210 82 48-120 200"/></g><g filter="url(#ds)" transform="translate(900 105) rotate(-8)"><rect width="380" height="610" rx="28" fill="#edf1f5"/><rect x="22" y="22" width="336" height="68" rx="11" fill="#fff"/><rect x="29" y="112" width="322" height="445" rx="18" fill="#11151c" stroke="url(#foil)" stroke-width="10"/><polygon points="190,135 245,235 350,245 270,315 294,420 190,365 86,420 110,315 30,245 135,235" fill="url(#foil)" opacity=".86"/><circle cx="190" cy="305" r="88" fill="#151c27"/><path d="M122 500q68-122 136 0" fill="#d92a42"/></g><g filter="url(#ds)" opacity=".9" transform="translate(1170 205) rotate(9)"><rect width="270" height="440" rx="22" fill="#f5f7fa"/><rect x="22" y="88" width="226" height="304" rx="14" fill="#13151b" stroke="url(#foil)" stroke-width="7"/><polygon points="135,118 166,180 234,190 184,235 197,300 135,266 73,300 86,235 36,190 104,180" fill="url(#foil)" opacity=".85"/></g></svg>