<svg xmlns="http://www.w3.org/2000/svg" viewBox="0 0 1600 900"><defs><linearGradient id="bg" x1="0" y1="0" x2="1" y2="1"><stop stop-color="#020914"/><stop offset=".58" stop-color="#201604"/><stop offset="1" stop-color="#5e4208"/></linearGradient><radialGradient id="g"><stop stop-color="#ffd86b" stop-opacity=".7"/><stop offset="1" stop-color="#ffd86b" stop-opacity="0"/></radialGradient><filter id="ds"><feDropShadow dx="0" dy="26" stdDeviation="26" flood-opacity=".72"/></filter></defs><rect width="1600" height="900" fill="url(#bg)"/><circle cx="1210" cy="260" r="360" fill="url(#g)"/><g opacity=".3" stroke="#ffd86b" stroke-width="4"><path d="M870 80l145 160-88 78 174 205"/><path d="M1300 30l-95 198 77 46-110 188"/></g><g filter="url(#ds)" transform="translate(910 105) rotate(-7)"><rect width="370" height="600" rx="28" fill="#efe8d2"/><rect x="22" y="22" width="326" height="68" rx="11" fill="#fff9e8"/><rect x="30" y="112" width="310" height="436" rx="17" fill="#0a0d13" stroke="#d8b23e" stroke-width="8"/><circle cx="185" cy="280" r="105" fill="#4f3809"/><path d="M110 460q75-138 150 0" fill="#9f7616"/><path d="M112 165l34-50 39 35 39-35 34 50-20 42H132z" fill="#f2c84b" stroke="#fff0a3" stroke-width="5"/><circle cx="185" cy="183" r="15" fill="#fff0a3"/></g><g filter="url(#ds)" opacity=".9" transform="translate(1170 195) rotate(8)"><rect width="280" height="455" rx="23" fill="#f4ead0"/><rect x="22" y="90" width="236" height="318" rx="14" fill="#12100a" stroke="#d7b347" stroke-width="6"/><path d="M82 145l28-40 30 28 30-28 28 40-17 35H99z" fill="#e3bb40"/></g></svg>